<svg xmlns="http://www.w3.org/2000/svg" width="16" height="16" viewBox="0 0 16 16" fill="none">
<path d="M6.99886 11.3341C6.8282 11.3341 6.65753 11.2688 6.52753 11.1388C6.26686 10.8781 6.26686 10.4568 6.52753 10.1962L8.73086 7.99282L6.61086 5.79748C6.35553 5.53215 6.36286 5.11015 6.62753 4.85482C6.89286 4.59948 7.31486 4.60682 7.5702 4.87082L10.1449 7.53748C10.3975 7.79948 10.3942 8.21482 10.1369 8.47215L7.4702 11.1388C7.3402 11.2688 7.16953 11.3341 6.99886 11.3341Z" fill="#6F787B"/>
<mask id="mask0_147_29830" style="mask-type:luminance" maskUnits="userSpaceOnUse" x="6" y="4" width="5" height="8">
<path d="M6.99886 11.3341C6.8282 11.3341 6.65753 11.2688 6.52753 11.1388C6.26686 10.8781 6.26686 10.4568 6.52753 10.1962L8.73086 7.99282L6.61086 5.79748C6.35553 5.53215 6.36286 5.11015 6.62753 4.85482C6.89286 4.59948 7.31486 4.60682 7.5702 4.87082L10.1449 7.53748C10.3975 7.79948 10.3942 8.21482 10.1369 8.47215L7.4702 11.1388C7.3402 11.2688 7.16953 11.3341 6.99886 11.3341Z" fill="white"/>
</mask>
<g mask="url(#mask0_147_29830)">
</g>
</svg>